<mxfile host="app.diagrams.net" modified="2024-06-20T23:06:48.463Z" agent="Mozilla/5.0 (Windows NT 10.0; Win64; x64) AppleWebKit/537.36 (KHTML, like Gecko) Chrome/126.0.0.0 Safari/537.36" etag="WqUoNi3cVW7OMWDBd92N" version="24.6.0" type="github">
  <diagram name="Page-1" id="Q9k48pYDpsMU2P6TAH1s">
    <mxGraphModel dx="2012" dy="1146" grid="1" gridSize="10" guides="1" tooltips="1" connect="1" arrows="1" fold="1" page="1" pageScale="1" pageWidth="850" pageHeight="1100" math="0" shadow="0">
      <root>
        <mxCell id="0" />
        <mxCell id="1" parent="0" />
        <mxCell id="KRj7UwOr3qHxxeuFmycR-2" value="" style="image;aspect=fixed;html=1;points=[];align=center;fontSize=12;image=img/lib/azure2/networking/DNS_Zones.svg;rounded=1;" parent="1" vertex="1">
          <mxGeometry x="25" y="103" width="64" height="64" as="geometry" />
        </mxCell>
        <mxCell id="KRj7UwOr3qHxxeuFmycR-27" value="" style="edgeStyle=orthogonalEdgeStyle;rounded=1;orthogonalLoop=1;jettySize=auto;html=1;" parent="1" source="KRj7UwOr3qHxxeuFmycR-5" target="KRj7UwOr3qHxxeuFmycR-2" edge="1">
          <mxGeometry relative="1" as="geometry" />
        </mxCell>
        <mxCell id="KRj7UwOr3qHxxeuFmycR-28" value="" style="edgeStyle=orthogonalEdgeStyle;rounded=1;orthogonalLoop=1;jettySize=auto;html=1;" parent="1" source="KRj7UwOr3qHxxeuFmycR-5" target="KRj7UwOr3qHxxeuFmycR-9" edge="1">
          <mxGeometry relative="1" as="geometry" />
        </mxCell>
        <mxCell id="KRj7UwOr3qHxxeuFmycR-5" value="" style="rounded=1;whiteSpace=wrap;html=1;" parent="1" vertex="1">
          <mxGeometry x="195" y="70" width="410" height="130" as="geometry" />
        </mxCell>
        <mxCell id="KRj7UwOr3qHxxeuFmycR-1" value="" style="fontColor=#0066CC;verticalAlign=top;verticalLabelPosition=bottom;labelPosition=center;align=center;html=1;outlineConnect=0;fillColor=#CCCCCC;strokeColor=#6881B3;gradientColor=none;gradientDirection=north;strokeWidth=2;shape=mxgraph.networks.pc;rounded=1;" parent="1" vertex="1">
          <mxGeometry x="255" y="100" width="90" height="70" as="geometry" />
        </mxCell>
        <mxCell id="KRj7UwOr3qHxxeuFmycR-6" value="&lt;b&gt;&lt;font style=&quot;font-size: 18px;&quot;&gt;User&lt;/font&gt;&lt;/b&gt;" style="text;html=1;align=center;verticalAlign=middle;whiteSpace=wrap;rounded=1;" parent="1" vertex="1">
          <mxGeometry x="230" y="30" width="95" height="50" as="geometry" />
        </mxCell>
        <mxCell id="KRj7UwOr3qHxxeuFmycR-7" value="" style="verticalLabelPosition=bottom;verticalAlign=top;html=1;shadow=0;dashed=0;strokeWidth=1;shape=mxgraph.android.phone2;strokeColor=#c0c0c0;rounded=1;" parent="1" vertex="1">
          <mxGeometry x="457.5" y="100" width="50" height="70" as="geometry" />
        </mxCell>
        <mxCell id="KRj7UwOr3qHxxeuFmycR-9" value="CDN" style="html=1;whiteSpace=wrap;strokeColor=none;fillColor=#0079D6;labelPosition=center;verticalLabelPosition=middle;verticalAlign=top;align=center;fontSize=12;outlineConnect=0;spacingTop=-6;fontColor=#FFFFFF;sketch=0;shape=mxgraph.sitemap.cloud;rounded=1;" parent="1" vertex="1">
          <mxGeometry x="705" y="100" width="120" height="70" as="geometry" />
        </mxCell>
        <mxCell id="KRj7UwOr3qHxxeuFmycR-45" style="rounded=1;orthogonalLoop=1;jettySize=auto;html=1;" parent="1" edge="1">
          <mxGeometry relative="1" as="geometry">
            <mxPoint x="280" y="430" as="sourcePoint" />
            <mxPoint x="590" y="640" as="targetPoint" />
          </mxGeometry>
        </mxCell>
        <mxCell id="KRj7UwOr3qHxxeuFmycR-59" style="edgeStyle=orthogonalEdgeStyle;rounded=1;orthogonalLoop=1;jettySize=auto;html=1;strokeColor=#db1a1a;" parent="1" source="KRj7UwOr3qHxxeuFmycR-15" target="KRj7UwOr3qHxxeuFmycR-55" edge="1">
          <mxGeometry relative="1" as="geometry">
            <Array as="points">
              <mxPoint x="280" y="480" />
            </Array>
          </mxGeometry>
        </mxCell>
        <mxCell id="KRj7UwOr3qHxxeuFmycR-15" value="" style="sketch=0;outlineConnect=0;fontColor=#232F3E;gradientColor=none;fillColor=#232F3D;strokeColor=none;dashed=0;verticalLabelPosition=bottom;verticalAlign=top;align=center;html=1;fontSize=12;fontStyle=0;aspect=fixed;pointerEvents=1;shape=mxgraph.aws4.traditional_server;rounded=1;" parent="1" vertex="1">
          <mxGeometry x="257.5" y="350" width="45" height="78" as="geometry" />
        </mxCell>
        <mxCell id="KRj7UwOr3qHxxeuFmycR-22" style="edgeStyle=orthogonalEdgeStyle;rounded=1;orthogonalLoop=1;jettySize=auto;html=1;" parent="1" source="KRj7UwOr3qHxxeuFmycR-16" edge="1">
          <mxGeometry relative="1" as="geometry">
            <mxPoint x="277.5" y="340" as="targetPoint" />
          </mxGeometry>
        </mxCell>
        <mxCell id="KRj7UwOr3qHxxeuFmycR-23" style="edgeStyle=orthogonalEdgeStyle;rounded=1;orthogonalLoop=1;jettySize=auto;html=1;" parent="1" source="KRj7UwOr3qHxxeuFmycR-16" target="KRj7UwOr3qHxxeuFmycR-21" edge="1">
          <mxGeometry relative="1" as="geometry" />
        </mxCell>
        <mxCell id="KRj7UwOr3qHxxeuFmycR-24" style="edgeStyle=orthogonalEdgeStyle;rounded=1;orthogonalLoop=1;jettySize=auto;html=1;" parent="1" source="KRj7UwOr3qHxxeuFmycR-16" target="KRj7UwOr3qHxxeuFmycR-20" edge="1">
          <mxGeometry relative="1" as="geometry" />
        </mxCell>
        <mxCell id="KRj7UwOr3qHxxeuFmycR-26" style="edgeStyle=orthogonalEdgeStyle;rounded=1;orthogonalLoop=1;jettySize=auto;html=1;" parent="1" source="KRj7UwOr3qHxxeuFmycR-16" target="KRj7UwOr3qHxxeuFmycR-25" edge="1">
          <mxGeometry relative="1" as="geometry" />
        </mxCell>
        <mxCell id="KRj7UwOr3qHxxeuFmycR-16" value="" style="verticalLabelPosition=bottom;html=1;verticalAlign=top;align=center;strokeColor=none;fillColor=#00BEF2;shape=mxgraph.azure.load_balancer_generic;pointerEvents=1;rounded=1;" parent="1" vertex="1">
          <mxGeometry x="377.5" y="240" width="37.5" height="50" as="geometry" />
        </mxCell>
        <mxCell id="KRj7UwOr3qHxxeuFmycR-18" style="edgeStyle=orthogonalEdgeStyle;rounded=1;orthogonalLoop=1;jettySize=auto;html=1;entryX=0;entryY=-0.02;entryDx=0;entryDy=0;entryPerimeter=0;" parent="1" source="KRj7UwOr3qHxxeuFmycR-1" target="KRj7UwOr3qHxxeuFmycR-16" edge="1">
          <mxGeometry relative="1" as="geometry" />
        </mxCell>
        <mxCell id="KRj7UwOr3qHxxeuFmycR-19" style="edgeStyle=orthogonalEdgeStyle;rounded=1;orthogonalLoop=1;jettySize=auto;html=1;entryX=1.04;entryY=0;entryDx=0;entryDy=0;entryPerimeter=0;" parent="1" source="KRj7UwOr3qHxxeuFmycR-7" target="KRj7UwOr3qHxxeuFmycR-16" edge="1">
          <mxGeometry relative="1" as="geometry" />
        </mxCell>
        <mxCell id="KRj7UwOr3qHxxeuFmycR-46" style="rounded=1;orthogonalLoop=1;jettySize=auto;html=1;" parent="1" edge="1">
          <mxGeometry relative="1" as="geometry">
            <mxPoint x="360" y="430" as="sourcePoint" />
            <mxPoint x="590" y="640" as="targetPoint" />
          </mxGeometry>
        </mxCell>
        <mxCell id="KRj7UwOr3qHxxeuFmycR-60" style="edgeStyle=orthogonalEdgeStyle;rounded=1;orthogonalLoop=1;jettySize=auto;html=1;strokeColor=#FF9999;" parent="1" source="KRj7UwOr3qHxxeuFmycR-20" edge="1">
          <mxGeometry relative="1" as="geometry">
            <mxPoint x="630" y="480" as="targetPoint" />
            <Array as="points">
              <mxPoint x="355" y="480" />
            </Array>
          </mxGeometry>
        </mxCell>
        <mxCell id="KRj7UwOr3qHxxeuFmycR-20" value="" style="sketch=0;outlineConnect=0;fontColor=#232F3E;gradientColor=none;fillColor=#232F3D;strokeColor=none;dashed=0;verticalLabelPosition=bottom;verticalAlign=top;align=center;html=1;fontSize=12;fontStyle=0;aspect=fixed;pointerEvents=1;shape=mxgraph.aws4.traditional_server;rounded=1;" parent="1" vertex="1">
          <mxGeometry x="332.5" y="350" width="45" height="78" as="geometry" />
        </mxCell>
        <mxCell id="KRj7UwOr3qHxxeuFmycR-47" style="rounded=1;orthogonalLoop=1;jettySize=auto;html=1;" parent="1" edge="1">
          <mxGeometry relative="1" as="geometry">
            <mxPoint x="438" y="430" as="sourcePoint" />
            <mxPoint x="590" y="640" as="targetPoint" />
          </mxGeometry>
        </mxCell>
        <mxCell id="KRj7UwOr3qHxxeuFmycR-21" value="" style="sketch=0;outlineConnect=0;fontColor=#232F3E;gradientColor=none;fillColor=#232F3D;strokeColor=none;dashed=0;verticalLabelPosition=bottom;verticalAlign=top;align=center;html=1;fontSize=12;fontStyle=0;aspect=fixed;pointerEvents=1;shape=mxgraph.aws4.traditional_server;rounded=1;" parent="1" vertex="1">
          <mxGeometry x="415" y="350" width="45" height="78" as="geometry" />
        </mxCell>
        <mxCell id="KRj7UwOr3qHxxeuFmycR-48" style="rounded=1;orthogonalLoop=1;jettySize=auto;html=1;entryX=0.5;entryY=0;entryDx=0;entryDy=0;entryPerimeter=0;" parent="1" target="KRj7UwOr3qHxxeuFmycR-35" edge="1">
          <mxGeometry relative="1" as="geometry">
            <mxPoint x="520" y="430" as="sourcePoint" />
          </mxGeometry>
        </mxCell>
        <mxCell id="KRj7UwOr3qHxxeuFmycR-62" style="edgeStyle=orthogonalEdgeStyle;rounded=1;orthogonalLoop=1;jettySize=auto;html=1;strokeColor=#FF9999;" parent="1" source="KRj7UwOr3qHxxeuFmycR-25" edge="1">
          <mxGeometry relative="1" as="geometry">
            <mxPoint x="630" y="480" as="targetPoint" />
            <Array as="points">
              <mxPoint x="520" y="480" />
            </Array>
          </mxGeometry>
        </mxCell>
        <mxCell id="KRj7UwOr3qHxxeuFmycR-25" value="" style="sketch=0;outlineConnect=0;fontColor=#232F3E;gradientColor=none;fillColor=#232F3D;strokeColor=none;dashed=0;verticalLabelPosition=bottom;verticalAlign=top;align=center;html=1;fontSize=12;fontStyle=0;aspect=fixed;pointerEvents=1;shape=mxgraph.aws4.traditional_server;rounded=1;" parent="1" vertex="1">
          <mxGeometry x="497.5" y="350" width="45" height="78" as="geometry" />
        </mxCell>
        <mxCell id="KRj7UwOr3qHxxeuFmycR-29" value="&lt;b&gt;&lt;font style=&quot;font-size: 18px;&quot;&gt;Load Balancer&lt;/font&gt;&lt;/b&gt;" style="text;html=1;align=center;verticalAlign=middle;whiteSpace=wrap;rounded=1;" parent="1" vertex="1">
          <mxGeometry x="425" y="240" width="95" height="50" as="geometry" />
        </mxCell>
        <mxCell id="KRj7UwOr3qHxxeuFmycR-30" value="Data Tier" style="shape=umlFrame;whiteSpace=wrap;html=1;pointerEvents=0;rounded=1;" parent="1" vertex="1">
          <mxGeometry x="120" y="590" width="660" height="200" as="geometry" />
        </mxCell>
        <mxCell id="KRj7UwOr3qHxxeuFmycR-33" value="" style="strokeWidth=2;html=1;shape=mxgraph.flowchart.database;whiteSpace=wrap;rounded=1;" parent="1" vertex="1">
          <mxGeometry x="155" y="640" width="90" height="90" as="geometry" />
        </mxCell>
        <mxCell id="KRj7UwOr3qHxxeuFmycR-34" value="Master DB" style="text;strokeColor=none;fillColor=none;spacingLeft=4;spacingRight=4;overflow=hidden;rotatable=0;points=[[0,0.5],[1,0.5]];portConstraint=eastwest;fontSize=12;whiteSpace=wrap;html=1;fontStyle=1;rounded=1;" parent="1" vertex="1">
          <mxGeometry x="160" y="740" width="85" height="30" as="geometry" />
        </mxCell>
        <mxCell id="KRj7UwOr3qHxxeuFmycR-35" value="" style="strokeWidth=2;html=1;shape=mxgraph.flowchart.database;whiteSpace=wrap;rounded=1;" parent="1" vertex="1">
          <mxGeometry x="545" y="645" width="90" height="90" as="geometry" />
        </mxCell>
        <mxCell id="KRj7UwOr3qHxxeuFmycR-36" value="" style="endArrow=classic;startArrow=classic;html=1;rounded=1;entryX=0;entryY=0.5;entryDx=0;entryDy=0;entryPerimeter=0;" parent="1" source="KRj7UwOr3qHxxeuFmycR-33" target="KRj7UwOr3qHxxeuFmycR-35" edge="1">
          <mxGeometry width="50" height="50" relative="1" as="geometry">
            <mxPoint x="335" y="610" as="sourcePoint" />
            <mxPoint x="385" y="560" as="targetPoint" />
          </mxGeometry>
        </mxCell>
        <mxCell id="KRj7UwOr3qHxxeuFmycR-37" value="Replication" style="text;strokeColor=none;fillColor=none;spacingLeft=4;spacingRight=4;overflow=hidden;rotatable=0;points=[[0,0.5],[1,0.5]];portConstraint=eastwest;fontSize=12;whiteSpace=wrap;html=1;fontStyle=1;rounded=1;" parent="1" vertex="1">
          <mxGeometry x="345" y="655" width="85" height="30" as="geometry" />
        </mxCell>
        <mxCell id="KRj7UwOr3qHxxeuFmycR-38" value="Slave DB1" style="text;strokeColor=none;fillColor=none;spacingLeft=4;spacingRight=4;overflow=hidden;rotatable=0;points=[[0,0.5],[1,0.5]];portConstraint=eastwest;fontSize=12;whiteSpace=wrap;html=1;fontStyle=1;rounded=1;" parent="1" vertex="1">
          <mxGeometry x="545" y="740" width="85" height="30" as="geometry" />
        </mxCell>
        <mxCell id="KRj7UwOr3qHxxeuFmycR-43" style="edgeStyle=orthogonalEdgeStyle;rounded=1;orthogonalLoop=1;jettySize=auto;html=1;exitX=0.5;exitY=1;exitDx=0;exitDy=0;exitPerimeter=0;" parent="1" source="KRj7UwOr3qHxxeuFmycR-35" target="KRj7UwOr3qHxxeuFmycR-35" edge="1">
          <mxGeometry relative="1" as="geometry" />
        </mxCell>
        <mxCell id="KRj7UwOr3qHxxeuFmycR-49" value="" style="strokeWidth=2;html=1;shape=mxgraph.flowchart.database;whiteSpace=wrap;rounded=1;" parent="1" vertex="1">
          <mxGeometry x="650" y="645" width="90" height="90" as="geometry" />
        </mxCell>
        <mxCell id="KRj7UwOr3qHxxeuFmycR-50" style="edgeStyle=orthogonalEdgeStyle;rounded=1;orthogonalLoop=1;jettySize=auto;html=1;exitX=0.5;exitY=1;exitDx=0;exitDy=0;exitPerimeter=0;" parent="1" source="KRj7UwOr3qHxxeuFmycR-49" target="KRj7UwOr3qHxxeuFmycR-49" edge="1">
          <mxGeometry relative="1" as="geometry" />
        </mxCell>
        <mxCell id="KRj7UwOr3qHxxeuFmycR-51" value="Slave DB2" style="text;strokeColor=none;fillColor=none;spacingLeft=4;spacingRight=4;overflow=hidden;rotatable=0;points=[[0,0.5],[1,0.5]];portConstraint=eastwest;fontSize=12;whiteSpace=wrap;html=1;fontStyle=1;rounded=1;" parent="1" vertex="1">
          <mxGeometry x="652.5" y="740" width="85" height="30" as="geometry" />
        </mxCell>
        <mxCell id="KRj7UwOr3qHxxeuFmycR-55" value="" style="outlineConnect=0;dashed=0;verticalLabelPosition=bottom;verticalAlign=top;align=center;html=1;shape=mxgraph.aws3.cache_node;fillColor=#2E73B8;gradientColor=none;rounded=1;" parent="1" vertex="1">
          <mxGeometry x="695" y="440" width="85" height="80" as="geometry" />
        </mxCell>
        <mxCell id="KRj7UwOr3qHxxeuFmycR-61" style="edgeStyle=orthogonalEdgeStyle;rounded=1;orthogonalLoop=1;jettySize=auto;html=1;entryX=0;entryY=0.5;entryDx=0;entryDy=0;entryPerimeter=0;strokeColor=#FF9999;" parent="1" source="KRj7UwOr3qHxxeuFmycR-21" target="KRj7UwOr3qHxxeuFmycR-55" edge="1">
          <mxGeometry relative="1" as="geometry">
            <Array as="points">
              <mxPoint x="440" y="480" />
            </Array>
          </mxGeometry>
        </mxCell>
        <mxCell id="KRj7UwOr3qHxxeuFmycR-63" value="Web Tier" style="shape=umlFrame;whiteSpace=wrap;html=1;pointerEvents=0;rounded=1;" parent="1" vertex="1">
          <mxGeometry x="120" y="310" width="530" height="250" as="geometry" />
        </mxCell>
      </root>
    </mxGraphModel>
  </diagram>
</mxfile>
